<svg width="624" height="297" viewBox="0 0 624 297" fill="none" xmlns="http://www.w3.org/2000/svg">
<g clip-path="url(#clip0)">
<path d="M440 144C440 214.693 382.693 272 312 272C285.262 272 260.443 263.795 239.91 249.773C239.33 249.377 238.832 248.873 238.428 248.297C229.867 236.098 219.23 225.465 207.031 216.902C206.719 216.682 206.445 216.408 206.229 216.092C192.207 195.559 184 170.74 184 144C184 73.3086 241.307 16 311.998 16C382.52 16 440 73.4805 440 144Z" fill="#015081"/>
<path d="M367.123 153C360.242 160.951 352.807 168.953 344.881 176.881C307.1 214.66 267.629 241.293 239.941 249.799C226.697 240.76 215.24 229.303 206.201 216.059C211.568 198.598 224.141 176.453 242.172 153C252.734 139.262 265.164 125.074 279.119 111.119C336.332 53.9082 397.432 22.25 415.592 40.4082C431.234 56.0527 409.906 103.561 367.123 153Z" fill="#02C6DC"/>
<path d="M215.102 227.621C211.924 223.943 208.949 220.084 206.201 216.059C211.568 198.598 224.141 176.453 242.172 153C252.734 139.262 265.164 125.074 279.119 111.119C336.332 53.9082 397.432 22.25 415.592 40.4082C417.299 42.1172 418.566 44.2051 419.412 46.6328C394.23 41.1035 339.898 72.3203 288.617 123.602C274.336 137.883 261.617 152.398 250.809 166.457C233.496 188.975 221.102 210.316 215.102 227.621Z" fill="#0DB2CC"/>
<path d="M398.086 144C398.086 191.543 359.545 230.086 312 230.086C264.455 230.086 225.914 191.543 225.914 144C225.914 96.457 264.457 57.9141 312 57.9141C359.543 57.9141 398.086 96.457 398.086 144Z" fill="#E8CE00"/>
<path d="M329.355 59.6641C308.551 63.9238 290.482 75.6895 278.1 92.0059C276.855 93.6445 278.047 96 280.103 96H321.287C325.326 96 328.801 99.1035 328.992 103.137C329.195 107.445 325.762 111 321.5 111H274.172C271.508 111 269.184 113.01 269.012 115.668C268.822 118.578 271.129 121 274 121H381.289C385.326 121 388.803 124.104 388.992 128.137C389.195 132.445 385.762 136 381.5 136H274.172C271.508 136 269.184 138.01 269.012 140.668C268.822 143.578 271.129 146 274 146H296.289C300.326 146 303.803 149.104 303.992 153.137C304.195 157.445 300.762 161 296.5 161H274.172C271.508 161 269.184 163.01 269.01 165.666C268.822 168.578 271.127 170.998 273.998 171H321.287C325.326 171 328.801 174.104 328.992 178.137C329.195 182.445 325.762 186 321.5 186H275.947C273.988 186 272.777 188.16 273.822 189.818C286.111 209.326 306.01 223.557 329.355 228.336C368.58 220.307 398.086 185.6 398.086 144C398.086 102.4 368.58 67.6934 329.355 59.6641ZM336.5 86H326.5C322.357 86 319 82.6426 319 78.5C319 74.3574 322.357 71 326.5 71H336.5C340.643 71 344 74.3574 344 78.5C344 82.6426 340.643 86 336.5 86ZM351.5 211H341.5C337.357 211 334 207.643 334 203.5C334 199.357 337.357 196 341.5 196H351.5C355.643 196 359 199.357 359 203.5C359 207.643 355.643 211 351.5 211ZM376.5 161H356.5C352.357 161 349 157.643 349 153.5C349 149.357 352.357 146 356.5 146H376.5C380.643 146 384 149.357 384 153.5C384 157.643 380.643 161 376.5 161Z" fill="#FDED32"/>
<path d="M373.047 146C364.57 156.238 355.139 166.621 344.881 176.881C307.1 214.66 267.629 241.293 239.941 249.799C230.693 243.486 222.312 235.996 215.02 227.539C215.023 227.537 215.027 227.537 215.029 227.535C215.053 227.564 215.076 227.594 215.102 227.623C215.115 227.582 215.131 227.543 215.145 227.502C242.906 219.674 283.348 192.689 322.018 154.018C324.684 151.352 327.291 148.678 329.844 146C363.348 110.848 386.865 75.0586 394.852 49.3457C404.586 46.2188 412.953 45.2188 419.406 46.6328C425.953 65.3926 407.396 104.504 373.047 146Z" fill="#02C6DC"/>
</g>
<path d="M99.207 234C97.5404 234 96.1237 233.417 94.957 232.25C93.7904 231.083 93.207 229.667 93.207 228V196H13.957C12.2904 196 10.8737 195.417 9.70703 194.25C8.54036 193.083 7.95703 191.667 7.95703 190V173C7.95703 170.333 8.8737 167.833 10.707 165.5L84.457 63.25C85.2904 61.9167 86.5404 60.9167 88.207 60.25C89.8737 59.4167 91.707 59 93.707 59H120.957C122.79 59 124.207 59.5833 125.207 60.75C126.374 61.75 126.957 63.1667 126.957 65V166.5H149.207C151.04 166.5 152.54 167.083 153.707 168.25C154.874 169.25 155.457 170.667 155.457 172.5V190C155.457 191.667 154.874 193.083 153.707 194.25C152.54 195.417 151.124 196 149.457 196H126.957V228C126.957 229.667 126.374 231.083 125.207 232.25C124.207 233.417 122.79 234 120.957 234H99.207ZM93.957 167.5V95.25L42.707 167.5H93.957Z" fill="white"/>
<path d="M559.207 234C557.54 234 556.124 233.417 554.957 232.25C553.79 231.083 553.207 229.667 553.207 228V196H473.957C472.29 196 470.874 195.417 469.707 194.25C468.54 193.083 467.957 191.667 467.957 190V173C467.957 170.333 468.874 167.833 470.707 165.5L544.457 63.25C545.29 61.9167 546.54 60.9167 548.207 60.25C549.874 59.4167 551.707 59 553.707 59H580.957C582.79 59 584.207 59.5833 585.207 60.75C586.374 61.75 586.957 63.1667 586.957 65V166.5H609.207C611.04 166.5 612.54 167.083 613.707 168.25C614.874 169.25 615.457 170.667 615.457 172.5V190C615.457 191.667 614.874 193.083 613.707 194.25C612.54 195.417 611.124 196 609.457 196H586.957V228C586.957 229.667 586.374 231.083 585.207 232.25C584.207 233.417 582.79 234 580.957 234H559.207ZM553.957 167.5V95.25L502.707 167.5H553.957Z" fill="white"/>
<defs>
<clipPath id="clip0">
<rect width="256" height="256" fill="white" transform="translate(184 16)"/>
</clipPath>
</defs>
</svg>