<svg width="257" height="449" viewBox="0 0 257 449" fill="none" xmlns="http://www.w3.org/2000/svg">
<circle cx="63" cy="348" r="31" stroke="white" stroke-opacity="0.1" stroke-width="6"/>
<path d="M45.627 343.402C45.627 339.331 51.9191 332.545 55.8671 332.545" stroke="white" stroke-opacity="0.1" stroke-width="6" stroke-linecap="round" stroke-linejoin="bevel"/>
<circle cx="46" cy="218" r="43" stroke="white" stroke-opacity="0.1" stroke-width="6"/>
<path d="M22.4954 211.78C22.4954 206.272 31.0082 197.091 36.3496 197.091" stroke="white" stroke-opacity="0.1" stroke-width="6" stroke-linecap="round" stroke-linejoin="bevel"/>
<circle cx="81" cy="64" r="61" stroke="white" stroke-opacity="0.1" stroke-width="6"/>
<path d="M48.2979 55.3459C48.2979 47.6821 60.1418 34.9092 67.5734 34.9092" stroke="white" stroke-opacity="0.1" stroke-width="6" stroke-linecap="round" stroke-linejoin="bevel"/>
<circle cx="161.5" cy="425.5" r="20.5" stroke="white" stroke-opacity="0.1" stroke-width="6"/>
<path d="M149.492 422.322C149.492 419.508 153.841 414.818 156.57 414.818" stroke="white" stroke-opacity="0.1" stroke-width="6" stroke-linecap="round" stroke-linejoin="bevel"/>
<circle cx="155.5" cy="284.5" r="26.5" stroke="white" stroke-opacity="0.1" stroke-width="6"/>
<path d="M140.426 280.511C140.426 276.979 145.886 271.091 149.311 271.091" stroke="white" stroke-opacity="0.1" stroke-width="6" stroke-linecap="round" stroke-linejoin="bevel"/>
<circle cx="212.5" cy="161.5" r="41.5" stroke="white" stroke-opacity="0.1" stroke-width="6"/>
<path d="M189.762 155.483C189.762 150.154 197.997 141.273 203.164 141.273" stroke="white" stroke-opacity="0.1" stroke-width="6" stroke-linecap="round" stroke-linejoin="bevel"/>
</svg>
