<svg width="252" height="246" viewBox="0 0 252 246" fill="none" xmlns="http://www.w3.org/2000/svg">
<mask id="mask0" mask-type="alpha" maskUnits="userSpaceOnUse" x="0" y="0" width="253" height="246">
<rect x="252" y="246" width="252" height="245.636" transform="rotate(-180 252 246)" fill="white" fill-opacity="0.3"/>
</mask>
<g mask="url(#mask0)">
<mask id="path-2-inside-1" fill="white">
<path d="M152.505 256.469C152.505 213.75 135.32 172.781 104.732 142.574C74.1436 112.367 32.6567 95.3964 -10.6019 95.3964L-10.6019 256.469L152.505 256.469Z"/>
</mask>
<path d="M152.505 256.469C152.505 213.75 135.32 172.781 104.732 142.574C74.1436 112.367 32.6567 95.3964 -10.6019 95.3964L-10.6019 256.469L152.505 256.469Z" stroke="white" stroke-width="24" mask="url(#path-2-inside-1)"/>
<mask id="path-3-inside-2" fill="white">
<path d="M112.544 254.054C112.544 222.014 99.6554 191.287 76.7141 168.632C53.7727 145.976 22.6576 133.249 -9.78633 133.249L-9.78636 254.054L112.544 254.054Z"/>
</mask>
<path d="M112.544 254.054C112.544 222.014 99.6554 191.287 76.7141 168.632C53.7727 145.976 22.6576 133.249 -9.78633 133.249L-9.78636 254.054L112.544 254.054Z" stroke="white" stroke-width="24" mask="url(#path-3-inside-2)"/>
<mask id="path-4-inside-3" fill="white">
<path d="M193.282 256.47C193.282 203.071 171.801 151.859 133.566 114.1C95.33 76.3415 43.4714 55.1287 -10.6018 55.1287L-10.6019 256.47L193.282 256.47Z"/>
</mask>
<path d="M193.282 256.47C193.282 203.071 171.801 151.859 133.566 114.1C95.33 76.3415 43.4714 55.1287 -10.6018 55.1287L-10.6019 256.47L193.282 256.47Z" stroke="white" stroke-width="24" mask="url(#path-4-inside-3)"/>
<mask id="path-5-inside-4" fill="white">
<path d="M234.058 256.47C234.058 192.391 208.282 130.936 162.399 85.6258C116.516 40.3153 54.2861 14.86 -10.6018 14.86L-10.6019 256.47L234.058 256.47Z"/>
</mask>
<path d="M234.058 256.47C234.058 192.391 208.282 130.936 162.399 85.6258C116.516 40.3153 54.2861 14.86 -10.6018 14.86L-10.6019 256.47L234.058 256.47Z" stroke="white" stroke-width="24" mask="url(#path-5-inside-4)"/>
</g>
</svg>
