<svg
    version="1.1"
    xmlns="http://www.w3.org/2000/svg"
    width="73px"
    height="48px"
    viewBox="0 0 73 48"
	id="signature"
>
    <path
        id="signaturePathBg"
        d="M5.4,37.2c-1.5,0-2.8-0.5-3.8-1.5s-1.5-2.6-1.5-4.6c0-1.6,0.3-3.2,0.9-4.7c0.6-1.5,1.5-2.9,2.5-4.1s2.2-2.2,3.4-2.9
		s2.5-1.1,3.7-1.1c1.3,0,2.2,0.4,2.7,1.1c0.5,0.8,0.7,1.6,0.7,2.4c0,0.9-0.2,1.7-0.6,2.5c-0.4,0.7-1,1-1.8,1c-0.5,0-1-0.2-1.4-0.7
		c0.5-0.3,0.9-0.8,1.2-1.6c0.4-0.8,0.5-1.5,0.5-2.2c0-0.4-0.1-0.7-0.2-0.9c-0.1-0.2-0.4-0.3-0.8-0.3c-0.9,0-1.7,0.4-2.7,1.1
		s-1.8,1.8-2.5,3c-0.8,1.2-1.4,2.5-1.9,3.8C3.2,29,3,30.3,3,31.4c0,1,0.2,1.9,0.7,2.7s1.4,1.2,2.8,1.2c1.3,0,2.6-0.3,3.9-1
		s2.5-1.7,3.6-3s2-2.8,2.7-4.6l0.6,0.5c-0.7,1.9-1.7,3.6-3,5.2S11.6,35.1,10,36C8.5,36.8,6.9,37.2,5.4,37.2z M15.1,48
		c-0.3,0-0.7-0.1-1.1-0.3c-0.4-0.2-0.8-0.6-1.1-1.2c-0.3-0.6-0.5-1.5-0.5-2.7c0-1.4,0.2-3.2,0.7-5.5s1.1-4.7,2-7.5s1.8-5.5,2.9-8.4
		s2.3-5.6,3.5-8.3c1.3-2.7,2.6-5.1,3.9-7.2s2.6-3.8,3.9-5.1C30.7,0.6,31.9,0,33,0c0.7,0,1.1,0.2,1.3,0.6s0.3,0.9,0.3,1.5
		c0,1.4-0.4,2.9-1.1,4.5c-0.8,1.6-1.8,3.3-3,4.9c-1.2,1.7-2.6,3.2-4.1,4.7s-3,2.8-4.6,3.8c-0.2,0.4-0.3,0.8-0.5,1.2
		c-0.1,0.4-0.3,0.8-0.5,1.2c0.4,0.1,0.6,0.3,0.8,0.6c0.2,0.3,0.3,0.6,0.4,1c0.2,1.4,0.5,2.7,0.7,3.9c0.3,1.1,0.7,2,1.2,2.7
		c0.5,0.6,1.3,1,2.3,1c1.1,0,2.1-0.4,2.8-1.2c0.8-0.8,1.6-2,2.5-3.5l0.7,0.5c-0.8,1.9-1.8,3.3-3.1,4.2c-1.2,0.9-2.3,1.3-3.2,1.3
		c-0.6,0-1.2-0.1-1.8-0.4c-0.6-0.3-1.2-0.7-1.8-1.1c0,2-0.2,4-0.6,6s-1,3.8-1.7,5.4c-0.7,1.6-1.5,2.9-2.4,3.9
		C17,47.5,16.1,48,15.1,48z M16.4,45.7c0.4,0,0.8-0.3,1.2-1c0.4-0.6,0.9-1.5,1.3-2.5s0.8-2.2,1.2-3.4c0.4-1.2,0.6-2.5,0.9-3.7
		c0.2-1.2,0.3-2.4,0.3-3.4c0-1-0.1-1.9-0.4-2.7c-0.3-0.8-0.7-1.8-1.2-2.9c-0.8,2.4-1.5,4.7-2.2,7c-0.6,2.2-1.1,4.3-1.5,6
		s-0.5,3.2-0.5,4.3C15.5,44.9,15.8,45.7,16.4,45.7z M22.6,18.1c2.1-1.9,3.9-3.9,5.4-5.8s2.7-3.7,3.5-5.2s1.2-2.6,1.2-3.2
		c0-0.4-0.2-0.7-0.7-0.7c-0.8,0-1.8,0.7-2.8,2c-1.1,1.4-2.2,3.2-3.3,5.4C24.8,12.9,23.7,15.4,22.6,18.1z M32.2,38.7
		c-0.6,0-1.2-0.2-1.9-0.5c-0.7-0.3-1.3-0.8-1.7-1.5c0.3,0,0.5,0.1,0.8,0.1s0.5,0,0.8,0c0.8,0,1.7-0.1,2.6-0.2
		c0.9-0.1,1.8-0.2,2.6-0.4c0.6-1.3,1.1-3,1.6-5s1-4.1,1.5-6.4s0.9-4.6,1.4-6.8s0.8-4.4,1.2-6.5c0.4-2,0.8-3.7,1.1-5.2
		c-1.8,1.3-3.1,2.1-3.9,2.5c-0.8,0.4-1.3,0.6-1.6,0.6c-0.4,0-0.7-0.1-0.9-0.3S35.5,8.5,35.5,8C36,8,36.9,7.4,38,6.6s2.4-1.8,3.7-3
		s2.6-2.4,3.8-3.6c0.2,0.1,0.3,0.3,0.3,0.7c0.1,0.3,0.1,0.6,0.1,0.8c0,0.8-0.1,1.7-0.4,2.6C45.2,5,45,5.9,44.8,6.9
		c-0.3,2.2-0.7,4.6-1.2,7.2s-1,5.3-1.7,7.9c-0.6,2.7-1.3,5.2-2,7.6s-1.5,4.5-2.4,6.3c0.4-0.1,0.7-0.1,1-0.1s0.6,0,0.9,0
		c1.2,0,2.2,0.2,3.1,0.5c0.8,0.3,1.4,1.1,1.6,2.2c-0.6-0.1-1.3-0.1-1.9-0.2c-0.6-0.1-1.3-0.1-1.9-0.1c-1,0-1.9,0-2.9,0.1
		c-0.9,0.1-1.8,0.1-2.7,0.2C33.9,38.7,33,38.7,32.2,38.7z M67.3,38.7c-0.9,0-2-0.2-3.2-0.5c-1.2-0.4-2.5-0.8-3.9-1.4
		S57.4,35.7,56,35c-1,0.6-1.9,1.1-2.9,1.5c-0.9,0.4-1.8,0.6-2.6,0.6c-1,0-1.7-0.2-2.4-0.7c-0.6-0.5-0.9-1.1-0.9-1.9
		c0-0.7,0.3-1.3,0.9-1.7c0.6-0.4,1.5-0.6,2.7-0.6c0.7,0,1.5,0.1,2.3,0.2c0.8,0.1,1.8,0.3,2.7,0.5c1.5-1.3,3-2.9,4.5-4.9
		c1.5-1.9,2.9-4,4.1-6.3c1.3-2.3,2.3-4.6,3.1-7c0.8-2.4,1.2-4.6,1.2-6.7c0-2.4-0.5-4.1-1.4-5.2c-1-1.1-2.2-1.6-3.7-1.6
		c-1.4,0-2.6,0.4-3.6,1.3c-1,0.8-1.7,2-2.2,3.5S57,9.1,57,10.9c0,0.6,0,1.2,0.1,1.7s0.2,1,0.5,1.6h-0.1h-0.1
		c-1.1-0.3-1.9-0.8-2.5-1.4c-0.6-0.6-0.9-1.6-0.9-2.9c0-1.7,0.4-3.3,1.3-4.9c0.9-1.5,2.1-2.8,3.6-3.7C60.7,0.5,62.5,0,64.5,0
		c1.6,0,3,0.4,4.1,1.2s2,1.8,2.6,3.1s0.9,2.8,0.9,4.4s-0.2,3.2-0.6,4.8s-1,3.2-1.6,4.7c-0.8,1.9-1.9,3.7-3.1,5.6s-2.6,3.6-4.1,5.3
		s-2.9,3.1-4.5,4.4c2.4,0.5,4.4,0.9,6.1,1.3c1.7,0.3,3.1,0.5,4.2,0.5c0.6,0,1.2-0.1,1.7-0.3s1.2-0.5,1.9-0.9c-0.4,1.6-1,2.8-1.8,3.6
		C69.7,38.4,68.6,38.7,67.3,38.7z M50.5,35.9c0.5,0,1.1-0.1,1.7-0.4s1.2-0.6,1.9-1.1c-0.7-0.3-1.4-0.5-2-0.6
		c-0.6-0.2-1.2-0.2-1.6-0.2c-0.6,0-1.1,0.1-1.3,0.4c-0.2,0.3-0.4,0.5-0.4,0.8s0.2,0.6,0.5,0.9S50.1,35.9,50.5,35.9z"
    />

    <path
        id="signaturePath"
        mask="url(#signatureMask)"
        d="M5.4,37.2c-1.5,0-2.8-0.5-3.8-1.5s-1.5-2.6-1.5-4.6c0-1.6,0.3-3.2,0.9-4.7c0.6-1.5,1.5-2.9,2.5-4.1s2.2-2.2,3.4-2.9
		s2.5-1.1,3.7-1.1c1.3,0,2.2,0.4,2.7,1.1c0.5,0.8,0.7,1.6,0.7,2.4c0,0.9-0.2,1.7-0.6,2.5c-0.4,0.7-1,1-1.8,1c-0.5,0-1-0.2-1.4-0.7
		c0.5-0.3,0.9-0.8,1.2-1.6c0.4-0.8,0.5-1.5,0.5-2.2c0-0.4-0.1-0.7-0.2-0.9c-0.1-0.2-0.4-0.3-0.8-0.3c-0.9,0-1.7,0.4-2.7,1.1
		s-1.8,1.8-2.5,3c-0.8,1.2-1.4,2.5-1.9,3.8C3.2,29,3,30.3,3,31.4c0,1,0.2,1.9,0.7,2.7s1.4,1.2,2.8,1.2c1.3,0,2.6-0.3,3.9-1
		s2.5-1.7,3.6-3s2-2.8,2.7-4.6l0.6,0.5c-0.7,1.9-1.7,3.6-3,5.2S11.6,35.1,10,36C8.5,36.8,6.9,37.2,5.4,37.2z M15.1,48
		c-0.3,0-0.7-0.1-1.1-0.3c-0.4-0.2-0.8-0.6-1.1-1.2c-0.3-0.6-0.5-1.5-0.5-2.7c0-1.4,0.2-3.2,0.7-5.5s1.1-4.7,2-7.5s1.8-5.5,2.9-8.4
		s2.3-5.6,3.5-8.3c1.3-2.7,2.6-5.1,3.9-7.2s2.6-3.8,3.9-5.1C30.7,0.6,31.9,0,33,0c0.7,0,1.1,0.2,1.3,0.6s0.3,0.9,0.3,1.5
		c0,1.4-0.4,2.9-1.1,4.5c-0.8,1.6-1.8,3.3-3,4.9c-1.2,1.7-2.6,3.2-4.1,4.7s-3,2.8-4.6,3.8c-0.2,0.4-0.3,0.8-0.5,1.2
		c-0.1,0.4-0.3,0.8-0.5,1.2c0.4,0.1,0.6,0.3,0.8,0.6c0.2,0.3,0.3,0.6,0.4,1c0.2,1.4,0.5,2.7,0.7,3.9c0.3,1.1,0.7,2,1.2,2.7
		c0.5,0.6,1.3,1,2.3,1c1.1,0,2.1-0.4,2.8-1.2c0.8-0.8,1.6-2,2.5-3.5l0.7,0.5c-0.8,1.9-1.8,3.3-3.1,4.2c-1.2,0.9-2.3,1.3-3.2,1.3
		c-0.6,0-1.2-0.1-1.8-0.4c-0.6-0.3-1.2-0.7-1.8-1.1c0,2-0.2,4-0.6,6s-1,3.8-1.7,5.4c-0.7,1.6-1.5,2.9-2.4,3.9
		C17,47.5,16.1,48,15.1,48z M16.4,45.7c0.4,0,0.8-0.3,1.2-1c0.4-0.6,0.9-1.5,1.3-2.5s0.8-2.2,1.2-3.4c0.4-1.2,0.6-2.5,0.9-3.7
		c0.2-1.2,0.3-2.4,0.3-3.4c0-1-0.1-1.9-0.4-2.7c-0.3-0.8-0.7-1.8-1.2-2.9c-0.8,2.4-1.5,4.7-2.2,7c-0.6,2.2-1.1,4.3-1.5,6
		s-0.5,3.2-0.5,4.3C15.5,44.9,15.8,45.7,16.4,45.7z M22.6,18.1c2.1-1.9,3.9-3.9,5.4-5.8s2.7-3.7,3.5-5.2s1.2-2.6,1.2-3.2
		c0-0.4-0.2-0.7-0.7-0.7c-0.8,0-1.8,0.7-2.8,2c-1.1,1.4-2.2,3.2-3.3,5.4C24.8,12.9,23.7,15.4,22.6,18.1z M32.2,38.7
		c-0.6,0-1.2-0.2-1.9-0.5c-0.7-0.3-1.3-0.8-1.7-1.5c0.3,0,0.5,0.1,0.8,0.1s0.5,0,0.8,0c0.8,0,1.7-0.1,2.6-0.2
		c0.9-0.1,1.8-0.2,2.6-0.4c0.6-1.3,1.1-3,1.6-5s1-4.1,1.5-6.4s0.9-4.6,1.4-6.8s0.8-4.4,1.2-6.5c0.4-2,0.8-3.7,1.1-5.2
		c-1.8,1.3-3.1,2.1-3.9,2.5c-0.8,0.4-1.3,0.6-1.6,0.6c-0.4,0-0.7-0.1-0.9-0.3S35.5,8.5,35.5,8C36,8,36.9,7.4,38,6.6s2.4-1.8,3.7-3
		s2.6-2.4,3.8-3.6c0.2,0.1,0.3,0.3,0.3,0.7c0.1,0.3,0.1,0.6,0.1,0.8c0,0.8-0.1,1.7-0.4,2.6C45.2,5,45,5.9,44.8,6.9
		c-0.3,2.2-0.7,4.6-1.2,7.2s-1,5.3-1.7,7.9c-0.6,2.7-1.3,5.2-2,7.6s-1.5,4.5-2.4,6.3c0.4-0.1,0.7-0.1,1-0.1s0.6,0,0.9,0
		c1.2,0,2.2,0.2,3.1,0.5c0.8,0.3,1.4,1.1,1.6,2.2c-0.6-0.1-1.3-0.1-1.9-0.2c-0.6-0.1-1.3-0.1-1.9-0.1c-1,0-1.9,0-2.9,0.1
		c-0.9,0.1-1.8,0.1-2.7,0.2C33.9,38.7,33,38.7,32.2,38.7z M67.3,38.7c-0.9,0-2-0.2-3.2-0.5c-1.2-0.4-2.5-0.8-3.9-1.4
		S57.4,35.7,56,35c-1,0.6-1.9,1.1-2.9,1.5c-0.9,0.4-1.8,0.6-2.6,0.6c-1,0-1.7-0.2-2.4-0.7c-0.6-0.5-0.9-1.1-0.9-1.9
		c0-0.7,0.3-1.3,0.9-1.7c0.6-0.4,1.5-0.6,2.7-0.6c0.7,0,1.5,0.1,2.3,0.2c0.8,0.1,1.8,0.3,2.7,0.5c1.5-1.3,3-2.9,4.5-4.9
		c1.5-1.9,2.9-4,4.1-6.3c1.3-2.3,2.3-4.6,3.1-7c0.8-2.4,1.2-4.6,1.2-6.7c0-2.4-0.5-4.1-1.4-5.2c-1-1.1-2.2-1.6-3.7-1.6
		c-1.4,0-2.6,0.4-3.6,1.3c-1,0.8-1.7,2-2.2,3.5S57,9.1,57,10.9c0,0.6,0,1.2,0.1,1.7s0.2,1,0.5,1.6h-0.1h-0.1
		c-1.1-0.3-1.9-0.8-2.5-1.4c-0.6-0.6-0.9-1.6-0.9-2.9c0-1.7,0.4-3.3,1.3-4.9c0.9-1.5,2.1-2.8,3.6-3.7C60.7,0.5,62.5,0,64.5,0
		c1.6,0,3,0.4,4.1,1.2s2,1.8,2.6,3.1s0.9,2.8,0.9,4.4s-0.2,3.2-0.6,4.8s-1,3.2-1.6,4.7c-0.8,1.9-1.9,3.7-3.1,5.6s-2.6,3.6-4.1,5.3
		s-2.9,3.1-4.5,4.4c2.4,0.5,4.4,0.9,6.1,1.3c1.7,0.3,3.1,0.5,4.2,0.5c0.6,0,1.2-0.1,1.7-0.3s1.2-0.5,1.9-0.9c-0.4,1.6-1,2.8-1.8,3.6
		C69.7,38.4,68.6,38.7,67.3,38.7z M50.5,35.9c0.5,0,1.1-0.1,1.7-0.4s1.2-0.6,1.9-1.1c-0.7-0.3-1.4-0.5-2-0.6
		c-0.6-0.2-1.2-0.2-1.6-0.2c-0.6,0-1.1,0.1-1.3,0.4c-0.2,0.3-0.4,0.5-0.4,0.8s0.2,0.6,0.5,0.9S50.1,35.9,50.5,35.9z"
    />

    <defs>
        <mask id="signatureMask">
            <path
                d="M10.9,25.5l1.6-2.5l0.4-1.6L12.5,20l-1.3-1.2H9.7l-1.5,0.9l-2.1,1.5l-1.9,2.2L3,25.5l-1,2.3l-0.4,3v2.1l1,2.1
		l1.9,1.2h2.1l3-0.9l2.6-1.8l2.1-1.1l2.2-2.3l1.6-3.3l0.8-3.3l1.3-3.6l1.5-2.8l1.2-3.3l1.8-3.8l2.1-3L28,4.8l2.2-2.5l1.9-0.8
		l1.1-0.3l0.5,0.9v1.1l-0.4,2l-0.5,1.6l-1.6,2.1L30,11.4l-2.3,2.8l-2.4,2l-2.7,1.9L19.9,22L19,25.1l-1.4,4.3l-0.8,2.5l-1.3,4
		l-0.7,2.5l-0.4,3.1V44l0.2,1.4l0.9,1l0.8,0.3l1.3-0.8l1.1-1.9l1.1-2.7l1.1-2.6l0.4-2.8l0.5-1.7l0.1-2v-2.3l-0.2-1.7l-0.4-1.6V25
		l-0.5-1l-0.1-0.7l0.6-0.3l0.8,1L22,25.2l0.2,0.9l0.7,1.8l0.2,0.7l0.5,1.2l0.3,1.3l1.5,1h1.4h1.4l0.9-1.8l1.4-0.7l0.7-1.4l1.2-0.9
		l12.2,10.6H44l-15.4-1.2c0,0,0,0,0.2,1l1.5,0.5l1.7-0.4h3.3l1.2-1.7l1-2.6l0.8-2.7l0.7-2.7l0.6-2.7l0.4-2.8l0.9-2.3l0.5-2.6
		l0.5-2.3l0.5-2.4l0.5-2.4l0.5-2.2L44,5.9l0.7-2.1l1.1-2.3L45.4,0l-1,1.2l-0.8,2l-1.1,0.6l-1.1,1.5l-2.2,1.5L38,7.6l-2.3,1.8
		l21.8,4.9L56.2,12l-0.3-1.3V7.5l0.3-2.9l1.6-1.4l2-1.4l2.1-0.6l2.4-0.6l2.5,0.6l1.6,1.1l1.3,1.3l0.7,2.3v2v1.9v1.9l-0.7,2.6
		l-0.9,2.6l-0.9,2.2l-1.3,2.2l-1.2,1.8l-1,1.5l-1.5,2.1l-1.5,1.8l-1.6,1.6l-1.2,1.6l-1.8,1.8l-2.6,1.9l-2,0.1l-2.4,1l-1.6-0.1
		l-0.9-1.8l0.9-1.7l1.7-0.5l1.6-0.1l1.8,0.2l1.8,0.5l3.3,1.3l2.4,0.9l1.8,0.7l1.1,0.3l1.5,0.3l0.7,0.3h1.2h1.1l0.8-0.5l1.4-0.4
		l0.8-0.8l1-1.1"
            />
        </mask>
    </defs>
</svg>